<svg id="Layer_1" data-name="Layer 1" xmlns="http://www.w3.org/2000/svg" viewBox="0 0 416 204"><defs><style>.cls-1{fill:#fff;}.cls-2{fill:#a0cfe6;}.cls-3{fill:#8bb8dc;}.cls-4{fill:#78abce;}.cls-5{fill:#c3dfed;}.cls-6{fill:#629abf;}</style></defs><title>Bookshelf</title><rect class="cls-1" x="287.64" y="169.67" width="84.82" height="30.84"/><rect class="cls-1" x="49.89" y="169.67" width="84.82" height="30.84"/><rect class="cls-2" x="332.62" y="64.93" width="27.63" height="85.88"/><rect class="cls-3" x="332.62" y="64.93" width="27.63" height="10.92"/><rect class="cls-3" x="332.62" y="142.47" width="27.63" height="8.35"/><rect class="cls-4" x="301.78" y="39.87" width="30.84" height="110.94"/><rect class="cls-3" x="310.13" y="52.08" width="14.14" height="78.07"/><rect class="cls-3" x="278.21" y="57.01" width="23.56" height="93.81"/><rect class="cls-3" x="162.96" y="5.18" width="42.41" height="145.64"/><polygon class="cls-1" points="168.96 21.88 168.96 91.71 199.37 91.71 199.37 21.88 184.16 31.31 168.96 21.88"/><circle class="cls-5" cx="184.16" cy="112.48" r="11.24"/><circle class="cls-6" cx="184.16" cy="112.48" r="9.07"/><rect class="cls-4" x="120.55" y="5.18" width="42.41" height="145.64"/><polygon class="cls-1" points="126.55 21.88 126.55 91.71 156.96 91.71 156.96 21.88 141.75 31.31 126.55 21.88"/><circle class="cls-5" cx="141.76" cy="112.48" r="11.24"/><circle class="cls-6" cx="141.75" cy="112.48" r="9.07"/><rect class="cls-3" x="78.14" y="5.18" width="42.41" height="145.64"/><polygon class="cls-1" points="84.14 21.88 84.14 91.71 114.55 91.71 114.55 21.88 99.35 31.31 84.14 21.88"/><circle class="cls-5" cx="99.35" cy="112.48" r="11.24"/><circle class="cls-6" cx="99.35" cy="112.48" r="9.07"/><rect class="cls-4" x="35.73" y="5.18" width="42.41" height="145.64"/><polygon class="cls-1" points="41.73 21.88 41.73 91.71 72.14 91.71 72.14 21.88 56.94 31.31 41.73 21.88"/><circle class="cls-5" cx="56.94" cy="112.48" r="11.24"/><circle class="cls-6" cx="56.94" cy="112.48" r="9.07"/><rect class="cls-4" x="216.38" y="99.76" width="85.89" height="15.3" transform="matrix(0.27, -0.96, 0.96, 0.27, 86.05, 328.22)"/><rect class="cls-1" x="3.63" y="150.82" width="409.09" height="18.85"/></svg>