<svg id="Layer_1" data-name="Layer 1" xmlns="http://www.w3.org/2000/svg" viewBox="0 0 278 692"><defs><style>.cls-1{opacity:0.9;}.cls-2{fill:#173249;}.cls-3{fill:#f2c697;}.cls-4{fill:#f7d9b0;}.cls-5{fill:#594d40;}.cls-6{fill:#db7581;}.cls-7{fill:#685c4d;}.cls-8{fill:#515151;}.cls-9{fill:#d3d3d3;}.cls-10{fill:#9fcedd;}.cls-11{fill:#256275;}.cls-12{fill:#f4f4f4;}.cls-13{fill:#cecece;}.cls-14{fill:#c1c0bf;}.cls-15{fill:#ddd;}.cls-16{fill:#777;}.cls-17{fill:#383838;}.cls-18{fill:#1d5f96;}</style></defs><title>Doctor-home-page</title><g class="cls-1"><ellipse class="cls-2" cx="111.84" cy="674.56" rx="106.82" ry="14.31"/></g><path class="cls-3" d="M115,175.43V151.9h-14.1v24.35h0a7.07,7.07,0,0,0,14.14-.09A7.14,7.14,0,0,0,115,175.43Z"/><path class="cls-4" d="M108,10.8a44,44,0,0,0-44,44v59a44,44,0,0,0,88,0v-59A44,44,0,0,0,108,10.8Z"/><ellipse class="cls-5" cx="83.54" cy="88.56" rx="2.78" ry="6.41"/><ellipse class="cls-5" cx="132.46" cy="88.56" rx="2.78" ry="6.41"/><path class="cls-6" d="M108,144.37c10.09,0,18.27-5.6,18.27-12.5H89.73C89.73,138.78,97.91,144.37,108,144.37Z"/><path class="cls-3" d="M64,77.28A8.51,8.51,0,0,0,62,77c-5,0-9.08,4.35-9.08,9.72s4.07,9.72,9.08,9.72a8.51,8.51,0,0,0,2-.25Z"/><path class="cls-3" d="M152,77.28a8.51,8.51,0,0,1,2-.25c5,0,9.08,4.35,9.08,9.72s-4.06,9.72-9.08,9.72a8.51,8.51,0,0,1-2-.25Z"/><path class="cls-5" d="M64,77.28V54.81h-9.4s-.45,15.13,2.66,23.64C57.25,78.45,60.62,76.28,64,77.28Z"/><path class="cls-7" d="M152,77.28s-13.46-12.75-16-23.86c0,0-30.12,18.16-72,9.4,0,0-31.83-9-22.43-41.66,0,0,11.75,9.83,22.43,2.14,0,0,37.07-37.17,73.92-8.33,0,0,14.1-2.56,22.43,13.14,0,0,7.28,25.6-1.59,50.34A8.26,8.26,0,0,0,152,77.28Z"/><path class="cls-5" d="M136,53.42s10.65-12,26.37-14.57c0,0,3.13,21.83-3.61,39.6,0,0-2.07-2-6.74-1.17C152,77.28,139.43,66.24,136,53.42Z"/><path class="cls-8" d="M132.46,68.05a20.49,20.49,0,0,0-17.3,9.55v-.12H100.77a20.72,20.72,0,1,0,1.09,1.92h12.27a20.49,20.49,0,1,0,18.33-11.36Zm-48.92,39.1a18.59,18.59,0,1,1,18.59-18.59A18.61,18.61,0,0,1,83.54,107.15Zm48.92,0A18.59,18.59,0,1,1,151,88.56,18.61,18.61,0,0,1,132.46,107.15Z"/><polygon class="cls-8" points="82.79 661.96 82.79 675.84 65.48 675.84 63.4 672 61 675.84 22.06 675.84 22.06 672 63.99 661.96 82.79 661.96"/><polygon class="cls-8" points="143.46 661.96 143.47 675.84 160.77 675.84 162.85 672 165.26 675.84 204.19 675.84 204.19 672 162.26 661.96 143.46 661.96"/><path class="cls-8" d="M62.28,350.91s0,1.36-.13,3.93C61.28,382,56.57,544.37,64,662h18.8s-7.26-236.17,5.55-284h43.58s21.36,134.38,11.54,284h18.8s9-186-4.7-310.2Z"/><polygon class="cls-7" points="158.3 358.67 62.03 358.67 62.28 350.9 157.49 350.9 158.3 358.67"/><rect class="cls-9" x="102.16" y="350.91" width="15.17" height="7.77"/><path class="cls-10" d="M100.95,172.09h14.12s36,5.93,59,30.66c0,0,46.94,144.47,79.48-15.28L275.34,186s-42.7,189.37-117.78,33.63c0,0-6.69,58.55-.07,131.29H62.28s6.41-94.73,0-131.38c0,0-43.09,63.92-2.4,155.23l-17,6.36s-38.94-83.78,5-179.28C47.84,201.84,50.74,183.24,100.95,172.09Z"/><polygon class="cls-11" points="108.02 172.09 101.65 180.9 108 185.98 114.36 180.9 108.02 172.09"/><polygon class="cls-11" points="112.48 182.39 108 185.98 103.52 182.39 92.21 309.89 108 325.27 123.78 309.89 112.48 182.39"/><path class="cls-12" d="M124.2,174.25a65.25,65.25,0,0,0-9.13-2.15H100.95c-2.63.39-9.07,2.23-9.07,2.23L99,184.64l9-12.54,9,12.54Z"/><path class="cls-12" d="M174.12,202.75c-21.39-24.45-49.91-28.5-49.91-28.5L108,248.47,91.87,174.32c-39,10.17-44,27.51-44,27.51-45.57,94.14-5,179.28-5,179.28l17-6.64c-36.92-88.84,2.4-154.95,2.4-154.95,5.62,17.31,0,131.38,0,131.38S54.63,457,59.88,492.32L102.16,502l8-121.36,12.18,120.9,42.82-3.9s.72-80.47-7.59-145.88a902.69,902.69,0,0,1-.38-127.12C235.58,374.47,275.34,186,275.34,186l-21.74,1.49C220,341.43,174.12,202.75,174.12,202.75Z"/><rect class="cls-13" x="68.99" y="371.44" width="30.94" height="3.03"/><rect class="cls-13" x="121.39" y="371.44" width="30.94" height="3.03"/><path class="cls-4" d="M42.88,381.12s1.42,7.17,3.25,8.48c0,0,4.37,3,8.72,1.08,0,0,5.61-2.4,7.35-6.25a3.62,3.62,0,0,0,3.18-2.21s0-2.43-5.51-7.74Z"/><path class="cls-4" d="M253.6,187.47s-16.55-3.5-8-14.25a16.87,16.87,0,0,1,3.79-2.55l-3.93-27.37s1.65-8.41,7.17-2.34l4,22.75s11.72-4.63,17-.59c0,0,8.46,6.81,1.75,22.87Z"/><path class="cls-3" d="M256.63,163.71l1.79,10.89s4,4.41,5.58-1.1l-1.95-11.38S258.56,161.64,256.63,163.71Z"/><path class="cls-3" d="M263,161.92l2.08,11.3s3.24,4.41,5-.76l-1.79-11A6.75,6.75,0,0,0,263,161.92Z"/><path class="cls-3" d="M269.74,161.62l1.79,10.48s2.48,2.85,4.34-.46l-1.32-7.52S272.84,161,269.74,161.62Z"/><path class="cls-3" d="M249.4,170.67s11.65-1.93,4.83,6.69c0,0,11.51.33,9.79,9.4l-10.41.71s-17-3.54-8-14.25A14.94,14.94,0,0,1,249.4,170.67Z"/><path class="cls-14" d="M110.16,380.87a.24.24,0,0,1-.24-.24l-2.13-132.18a.24.24,0,1,1,.48,0l2.13,132.18a.24.24,0,0,1-.24.25Z"/><polygon class="cls-13" points="108.04 248.47 108.29 263.87 81.32 208.5 95.32 190.14 108.04 248.47"/><path class="cls-15" d="M95.32,190.14l-3.45-15.81s-7.53,1.45-10.55,3.19l-3.63,11.89,9.63,11.21Z"/><polygon class="cls-13" points="108.03 248.45 108.25 263.79 134.75 208.43 120.75 190.06 108.03 248.45"/><path class="cls-15" d="M120.75,190.06l3.45-15.81s7,1.17,10.53,2.69l3.65,12.39-9.63,11.21Z"/><path class="cls-16" d="M132,271c9.85-5.69,13.33-23.31,13.48-24.07l-1.42-.27c0,.19-3.66,18.55-13.43,23.44-.21-.17-.43-.32-.63-.5-7.42-6.87-4.66-25.23-4.63-25.41l-1.43-.22c-.12.78-2.91,19.3,5.08,26.7l.09.07c-3.14,1-6.6.61-10.31-1.28l-.66,1.29a16.56,16.56,0,0,0,7.51,2,12.35,12.35,0,0,0,4.79-1,11.74,11.74,0,0,0,6.61,1.86,19.56,19.56,0,0,0,4.47-.56l-.33-1.41C137.53,272.48,134.46,272.25,132,271Z"/><rect class="cls-17" x="140.13" y="270.27" width="6.16" height="3.57" transform="translate(-48.3 31.54) rotate(-10.77)"/><rect class="cls-17" x="113" y="267.33" width="6.16" height="3.57" transform="translate(123.9 -23.87) rotate(24.86)"/><circle class="cls-16" cx="79.63" cy="252.71" r="8.78"/><circle class="cls-13" cx="79.63" cy="252.71" r="5.17"/><path class="cls-18" d="M100.11,169.6h0c-.41-.17-10.06-4-18.15,2.62-11.28,9.26-13.18,33.44-5.66,71.87a1.45,1.45,0,0,0,1.42,1.17l.28,0a1.45,1.45,0,0,0,1.15-1.7c-9.08-46.42-2.5-63.17,4.63-69,6.71-5.54,14.85-2.36,15.23-2.2a1.44,1.44,0,0,0,.81.09l1.16-.26V170Z"/><path class="cls-18" d="M145,229.18a11.8,11.8,0,0,0-5.38-4.58c6.91-24.39,6.22-41.11-2.05-49.71s-21-5.61-21.5-5.47l-1.05.27v2.41l1.11.15a1.53,1.53,0,0,0,.65,0c.12,0,11.59-2.75,18.72,4.69,7.4,7.71,7.83,24,1.3,47a11.23,11.23,0,0,0-8,2.22c-3.92,3.07-5.82,8.89-5.63,17.31a1.45,1.45,0,0,0,1.45,1.42h0a1.45,1.45,0,0,0,1.42-1.48c-.16-7.32,1.39-12.49,4.49-14.94a8.5,8.5,0,0,1,7-1.49h.1a8.66,8.66,0,0,1,5,3.78c2.19,3.43,2.47,8.47.83,15a1.45,1.45,0,1,0,2.81.71C148.06,239.11,147.66,233.31,145,229.18Z"/><path class="cls-13" d="M58.8,371.84l30.65-18.2L63.85,311,45.69,322.28A193.47,193.47,0,0,0,58.8,371.84Z"/><path class="cls-13" d="M29,331.54,1.54,347.75,26,391.33l16.92-10.21S31.14,350.65,29,331.54Z"/></svg>