<svg id="Layer_1" data-name="Layer 1" xmlns="http://www.w3.org/2000/svg" viewBox="0 0 97 142"><defs><style>.cls-1{fill:#f2c697;}.cls-2{fill:#f7d9b0;}.cls-3{fill:#594d40;}.cls-4{fill:#db7581;}.cls-5{fill:#685c4d;}.cls-6{fill:#515151;}</style></defs><title>Doctor-chat-head</title><path class="cls-1" d="M58.72,134V115.87H47.86v18.75h0a5.44,5.44,0,0,0,10.88-.07A5.5,5.5,0,0,0,58.72,134Z"/><path class="cls-2" d="M53.29,7.23A33.88,33.88,0,0,0,19.41,41.12v45.4a33.88,33.88,0,0,0,67.77,0V41.12A33.88,33.88,0,0,0,53.29,7.23Z"/><ellipse class="cls-3" cx="34.45" cy="67.1" rx="2.14" ry="4.93"/><ellipse class="cls-3" cx="72.12" cy="67.1" rx="2.14" ry="4.93"/><path class="cls-4" d="M53.29,110.08c7.77,0,14.06-4.31,14.06-9.62H39.23C39.23,105.77,45.52,110.08,53.29,110.08Z"/><path class="cls-1" d="M19.41,58.42a6.55,6.55,0,0,0-1.56-.19,7.5,7.5,0,0,0,0,15A6.55,6.55,0,0,0,19.41,73Z"/><path class="cls-1" d="M87.17,58.42a6.55,6.55,0,0,1,1.56-.19,7.5,7.5,0,0,1,0,15A6.55,6.55,0,0,1,87.17,73Z"/><path class="cls-3" d="M19.41,58.42V41.12H12.17s-.35,11.65,2,18.2A7.07,7.07,0,0,1,19.41,58.42Z"/><path class="cls-5" d="M87.17,58.42S76.81,48.6,74.83,40c0,0-23.19,14-55.43,7.24,0,0-24.51-6.91-17.27-32.07,0,0,9,7.57,17.27,1.64,0,0,28.54-28.62,56.91-6.41,0,0,10.86-2,17.27,10.12,0,0,5.61,19.71-1.23,38.76A6.36,6.36,0,0,0,87.17,58.42Z"/><path class="cls-3" d="M74.83,40s8.2-9.27,20.3-11.22c0,0,2.41,16.81-2.78,30.48,0,0-1.6-1.51-5.19-.9C87.17,58.42,77.49,49.92,74.83,40Z"/><path class="cls-6" d="M72.12,51.31A15.78,15.78,0,0,0,58.8,58.67v-.09H47.72a16,16,0,1,0,.84,1.48H58a15.78,15.78,0,1,0,14.11-8.74ZM34.45,81.41A14.31,14.31,0,1,1,48.76,67.1,14.33,14.33,0,0,1,34.45,81.41Zm37.67,0A14.31,14.31,0,1,1,86.43,67.1,14.33,14.33,0,0,1,72.12,81.41Z"/></svg>