<svg id="Layer_1" data-name="Layer 1" xmlns="http://www.w3.org/2000/svg" viewBox="0 0 234 733"><defs><style>.cls-1{fill:#152f42;opacity:0.9;}.cls-2{fill:#f2c697;}.cls-3{fill:#f7d9b0;}.cls-4{fill:#594d40;}.cls-5{fill:#685c4d;}.cls-6{fill:#515151;}.cls-7{fill:#d3d3d3;}.cls-8{fill:#9fcedd;}.cls-9{fill:#256275;}.cls-10{fill:#f4f4f4;}.cls-11{fill:#cecece;}.cls-12{fill:#c1c0bf;}.cls-13{fill:#ddd;}.cls-14{fill:#777;}.cls-15{fill:#383838;}.cls-16{fill:#1d5f96;}</style></defs><title>Doctor-login</title><ellipse class="cls-1" cx="116.5" cy="717.43" rx="113.5" ry="15.21"/><path class="cls-2" d="M119.91,187.06v-25h-15v25.88h0a7.51,7.51,0,0,0,15-.09A7.59,7.59,0,0,0,119.91,187.06Z"/><path class="cls-3" d="M112.41,12.14A46.76,46.76,0,0,0,65.65,58.9v62.65a46.76,46.76,0,0,0,93.52,0V58.9A46.76,46.76,0,0,0,112.41,12.14Z"/><ellipse class="cls-4" cx="86.42" cy="94.76" rx="2.95" ry="6.81"/><ellipse class="cls-4" cx="138.41" cy="94.76" rx="2.95" ry="6.81"/><path class="cls-2" d="M65.65,82.77a9,9,0,0,0-2.16-.27c-5.33,0-9.65,4.62-9.65,10.33s4.32,10.33,9.65,10.33a9,9,0,0,0,2.16-.27Z"/><path class="cls-2" d="M159.18,82.77a9,9,0,0,1,2.16-.27c5.33,0,9.65,4.62,9.65,10.33s-4.32,10.33-9.65,10.33a9,9,0,0,1-2.16-.27Z"/><path class="cls-4" d="M92.58,150.29h-1a.51.51,0,0,1-.51-.52.52.52,0,0,1,.52-.51c12.45.08,44.82-1.18,44.95-7.72a.51.51,0,0,1,1,0C137.42,149.85,100.33,150.29,92.58,150.29Z"/><path class="cls-4" d="M65.65,82.77V58.9h-10S55.18,75,58.49,84C58.49,84,62.08,81.71,65.65,82.77Z"/><path class="cls-5" d="M159.18,82.77s-14.3-13.55-17-25.35c0,0-32,19.3-76.5,10,0,0-33.82-9.53-23.84-44.27,0,0,12.49,10.44,23.84,2.27,0,0,39.38-39.5,78.54-8.85,0,0,15-2.72,23.84,14,0,0,7.74,27.2-1.69,53.49A8.78,8.78,0,0,0,159.18,82.77Z"/><path class="cls-4" d="M142.15,57.42s11.32-12.8,28-15.48c0,0,3.33,23.2-3.83,42.07,0,0-2.2-2.08-7.16-1.24C159.18,82.77,145.81,71,142.15,57.42Z"/><path class="cls-6" d="M138.41,73A21.78,21.78,0,0,0,120,83.12V83H104.74a22,22,0,1,0,1.16,2h13A21.77,21.77,0,1,0,138.41,73Zm-52,41.54a19.75,19.75,0,1,1,19.75-19.75A19.77,19.77,0,0,1,86.42,114.51Zm52,0a19.75,19.75,0,1,1,19.75-19.75A19.77,19.77,0,0,1,138.41,114.51Z"/><polygon class="cls-6" points="85.63 704.04 85.63 718.79 67.24 718.79 65.03 714.71 62.47 718.79 21.1 718.79 21.1 714.71 65.65 704.04 85.63 704.04"/><polygon class="cls-6" points="150.1 704.04 150.1 718.79 168.49 718.79 170.7 714.71 173.26 718.79 214.63 718.79 214.63 714.71 170.08 704.04 150.1 704.04"/><path class="cls-6" d="M63.84,373.52s-.05,1.45-.14,4.18c-.92,28.88-5.93,201.39,2,326.34h20s-7.72-251,5.9-301.8h46.31S160.54,545,150.1,704h20s9.54-197.61-5-329.61Z"/><polygon class="cls-5" points="165.86 381.77 63.57 381.77 63.84 373.52 165 373.52 165.86 381.77"/><rect class="cls-7" x="106.21" y="373.52" width="16.12" height="8.25"/><path class="cls-8" d="M104.92,183.52h15s38.23,6.3,62.74,32.57c0,0,38.14,62.42-23.49,180.17l-21.45-6.64s60.19-77,27.35-155.62c0,0-7.11,62.21-.08,139.51H63.84s6.81-100.66,0-139.6c0,0-45.1,79.39,29.17,158.17l-22,3.25S1.85,316.6,48.49,215.13C48.49,215.13,51.58,195.37,104.92,183.52Z"/><polygon class="cls-9" points="112.44 183.52 105.67 192.88 112.42 198.28 119.18 192.88 112.44 183.52"/><polygon class="cls-9" points="117.17 194.47 112.42 198.28 107.66 194.47 95.64 329.94 112.42 346.28 129.19 329.94 117.17 194.47"/><path class="cls-10" d="M129.63,185.81a69.33,69.33,0,0,0-9.7-2.29h-15c-2.79.41-9.64,2.37-9.64,2.37l7.54,11,9.61-13.33L122,196.86Z"/><path class="cls-10" d="M182.67,216.1c-22.73-26-53-30.29-53-30.29l-17.18,78.87L95.28,185.89c-41.41,10.8-46.79,29.24-46.79,29.24C.08,315.16,71,395.35,71,395.35l22-3.25C22.5,316.4,63.84,233.92,63.84,233.92c6,18.39,0,139.6,0,139.6s-8.13,112.76-2.55,150.26l44.93,10.28,8.5-129,12.94,128.47,45.5-4.14s.76-85.5-8.07-155a959.17,959.17,0,0,1-.4-135.07c30.18,63.68-27,150.27-27,150.27l21.45,6.64C225.61,283.18,182.67,216.1,182.67,216.1Z"/><rect class="cls-11" x="70.97" y="396.96" width="32.88" height="3.22" transform="translate(-63.52 19.47) rotate(-9.34)"/><rect class="cls-11" x="127.64" y="397.18" width="32.88" height="3.22" transform="translate(118.64 -24.47) rotate(16.42)"/><polygon class="cls-3" points="70.97 395.35 93.01 392.09 95.64 395.35 72.17 399.44 70.97 395.35"/><polygon class="cls-3" points="159.18 396.27 137.72 389.63 133.95 394.12 156.24 400.69 159.18 396.27"/><path class="cls-12" d="M114.72,405.37a.26.26,0,0,1-.26-.25L112.2,264.66a.26.26,0,1,1,.51,0L115,405.1a.26.26,0,0,1-.25.26Z"/><polygon class="cls-11" points="112.46 264.68 112.72 281.04 84.07 222.21 98.95 202.69 112.46 264.68"/><path class="cls-13" d="M98.95,202.69l-3.66-16.8s-8,1.54-11.21,3.39l-3.85,12.64,10.24,11.92Z"/><polygon class="cls-11" points="112.45 264.65 112.68 280.96 140.84 222.13 125.97 202.61 112.45 264.65"/><path class="cls-13" d="M126,202.61l3.66-16.8s7.49,1.24,11.19,2.86l3.88,13.17-10.24,11.92Z"/><path class="cls-11" d="M64.81,350.86s19.72,34.9,30.83,44.49l5.38-.65s-25-26.07-35.85-53.81C65.18,340.88,64.56,349.46,64.81,350.86Z"/><path class="cls-11" d="M133.95,394.12s20.2-21.79,29.11-57.25l-.31-11.55S151.89,366.82,130.1,393Z"/><path class="cls-14" d="M137.94,288.59c10.47-6,14.16-24.76,14.32-25.58l-1.51-.29c0,.2-3.89,19.71-14.27,24.91-.22-.18-.46-.34-.67-.54-7.89-7.3-5-26.8-4.92-27l-1.52-.24c-.13.83-3.09,20.51,5.4,28.37l.09.08c-3.34,1.1-7,.65-11-1.36l-.7,1.37a17.59,17.59,0,0,0,8,2.12,13.13,13.13,0,0,0,5.09-1,12.47,12.47,0,0,0,7,2,20.78,20.78,0,0,0,4.75-.59l-.35-1.5C143.8,290.19,140.53,289.95,137.94,288.59Z"/><rect class="cls-15" x="146.56" y="287.84" width="6.55" height="3.79" transform="translate(-51.48 33.09) rotate(-10.77)"/><rect class="cls-15" x="117.74" y="284.71" width="6.55" height="3.79" transform="translate(131.7 -24.32) rotate(24.86)"/><circle class="cls-14" cx="82.27" cy="269.19" r="9.33"/><circle class="cls-11" cx="82.27" cy="269.19" r="5.49"/><path class="cls-16" d="M104,180.87h0l0,0c-.43-.18-10.69-4.26-19.28,2.79-12,9.84-14,35.53-6,76.37a1.54,1.54,0,0,0,1.51,1.25l.3,0a1.54,1.54,0,0,0,1.22-1.81c-9.65-49.33-2.65-67.12,4.92-73.37,7.13-5.88,15.78-2.51,16.19-2.34a1.54,1.54,0,0,0,.86.09l1.23-.28v-2.27Z"/><path class="cls-16" d="M151.76,244.18a12.54,12.54,0,0,0-5.72-4.87c7.34-25.91,6.61-43.68-2.18-52.82s-22.27-6-22.84-5.82l-1.12.29v2.56l1.18.16a1.63,1.63,0,0,0,.69,0c.12,0,12.31-2.92,19.89,5,7.86,8.2,8.32,25.45,1.38,49.92a11.94,11.94,0,0,0-8.55,2.36c-4.17,3.26-6.18,9.45-6,18.39a1.54,1.54,0,0,0,1.54,1.51h0a1.54,1.54,0,0,0,1.51-1.58c-.17-7.78,1.47-13.27,4.77-15.87a9,9,0,0,1,7.4-1.58h.11a9.2,9.2,0,0,1,5.3,4c2.32,3.65,2.62,9,.89,15.9a1.54,1.54,0,1,0,3,.75C155,254.73,154.56,248.57,151.76,244.18Z"/></svg>