<svg id="Layer_1" data-name="Layer 1" xmlns="http://www.w3.org/2000/svg" xmlns:xlink="http://www.w3.org/1999/xlink" viewBox="0 0 113 54.69"><defs><style>.cls-1{fill-rule:evenodd;fill:url(#radial-gradient);}</style><radialGradient id="radial-gradient" cx="56.44" cy="27.51" r="61.17" gradientUnits="userSpaceOnUse"><stop offset="0" stop-color="#244f6d" stop-opacity="0.95"/><stop offset="0.15" stop-color="#244f6d" stop-opacity="0.91"/><stop offset="0.31" stop-color="#244f6d" stop-opacity="0.78"/><stop offset="0.43" stop-color="#244f6d" stop-opacity="0.65"/><stop offset="0.52" stop-color="#244f6d" stop-opacity="0.5"/><stop offset="0.76" stop-color="#244f6d" stop-opacity="0.14"/><stop offset="0.89" stop-color="#244f6d" stop-opacity="0"/></radialGradient></defs><title>logo-profile</title><path class="cls-1" d="M62.36,41.3,66,14.58a1.49,1.49,0,0,1,2.93,0L72.4,31.83h6.42A1.34,1.34,0,0,1,80.18,33l1.69,5.64,4.51-12.51a1.52,1.52,0,0,1,2.71-.34l3.61,6.09h45.88v2.93c-1.91,0-45.66.11-46.45,0-1.69-.11-1.69-.9-4.05-4.85L83,43.78a1.41,1.41,0,0,1-2.7-.11l-2.59-8.91H71.15a1.55,1.55,0,0,1-1.46-1.13l-2-10L63.6,53.48a1.48,1.48,0,0,1-2.93-.11l-2-18.6c-2.59,0-2.14,0-3.72-5.07-.45,2.59-.34,5.07-2,5.07h-9c-1.58,0-1.58-1.92-2-3.72l-3,10.15A1.45,1.45,0,0,1,36,41.08L29.67,10.3,23.58,52.35a1.43,1.43,0,0,1-2.82.11L16.81,35.1h-42.5V32.17c1.8,0,43.29-.23,44.31.23,1.24.56,2.82,9.92,3.27,11.72L28,1.62a1.49,1.49,0,0,1,2.93-.11l6.76,33.26L40.6,25a1.44,1.44,0,0,1,2.82.11L45,31.83h6.65l1.46-8.57A1.45,1.45,0,0,1,55.94,23l2.71,8.8c1,0,2.59-.23,2.82,1.35Z"/></svg>