<svg id="Layer_1" data-name="Layer 1" xmlns="http://www.w3.org/2000/svg" viewBox="0 0 357 303"><defs><style>.cls-1{fill:#e6e6e7;}.cls-2{fill:#8bb8dc;}.cls-3{fill:#f0f1f1;}.cls-4{fill:#c3dfed;}.cls-5{fill:#a0cfe6;}</style></defs><title>Pictures</title><circle class="cls-1" cx="69.29" cy="165.64" r="4.98"/><circle class="cls-2" cx="69.29" cy="165.64" r="2.73"/><circle class="cls-1" cx="256.45" cy="7.55" r="4.98"/><circle class="cls-2" cx="256.45" cy="7.55" r="2.73"/><circle class="cls-1" cx="69.29" cy="7.57" r="4.98"/><circle class="cls-2" cx="69.29" cy="7.57" r="2.73"/><rect class="cls-2" x="3.75" y="10.47" width="131.08" height="131.08"/><rect class="cls-3" x="12.82" y="19.54" width="112.93" height="112.93"/><rect class="cls-2" x="160.26" y="10.47" width="192.38" height="286.87"/><rect class="cls-3" x="169.36" y="19.14" width="174.18" height="269.77"/><rect class="cls-2" x="3.8" y="168.5" width="130.97" height="130.97"/><rect class="cls-3" x="12.87" y="177.57" width="112.83" height="112.84"/><ellipse class="cls-4" cx="256.45" cy="64.7" rx="55.85" ry="16.44"/><rect class="cls-4" x="181.07" y="113.92" width="67.47" height="5.14"/><rect class="cls-4" x="181.07" y="124.84" width="67.47" height="5.14"/><rect class="cls-4" x="181.07" y="135.76" width="67.47" height="5.14"/><rect class="cls-4" x="181.07" y="146.69" width="67.47" height="5.14"/><rect class="cls-4" x="181.07" y="157.61" width="67.47" height="5.14"/><rect class="cls-4" x="181.07" y="168.53" width="67.47" height="5.14"/><rect class="cls-4" x="181.07" y="191.35" width="67.47" height="5.14"/><rect class="cls-4" x="181.07" y="202.27" width="67.47" height="5.14"/><rect class="cls-4" x="181.07" y="213.19" width="67.47" height="5.14"/><rect class="cls-4" x="181.07" y="224.12" width="67.47" height="5.14"/><rect class="cls-4" x="181.07" y="235.04" width="67.47" height="5.14"/><rect class="cls-4" x="181.07" y="245.96" width="67.47" height="5.14"/><rect class="cls-4" x="265.89" y="113.92" width="67.47" height="5.14"/><rect class="cls-4" x="265.89" y="124.84" width="67.47" height="5.14"/><rect class="cls-4" x="265.89" y="135.76" width="67.47" height="5.14"/><rect class="cls-4" x="265.89" y="146.69" width="67.47" height="5.14"/><rect class="cls-4" x="265.89" y="157.61" width="67.47" height="5.14"/><rect class="cls-4" x="265.89" y="168.53" width="67.47" height="5.14"/><polygon class="cls-2" points="282.42 273.62 300.91 262.91 319.4 273.62 319.4 216.22 282.42 216.22 282.42 273.62"/><circle class="cls-5" cx="300.91" cy="216.21" r="25.7"/><circle class="cls-2" cx="300.91" cy="216.21" r="18.49"/><path class="cls-5" d="M90.35,48.93c-9.71-4.31-12.58,1.35-14.15,0-3.67-3.2-.54-5.13,2.29-10.3,1.43-2.6,4.55-4.87,3.73-6a20.84,20.84,0,0,0-3.8-3.43L71.09,38S60.36,50,59.79,67.11,52,87.94,42.73,96.61,33.81,116.16,34.32,121c.36,3.38,7.18.62,7.18.62s-4.25-10.9,3.08-16.3,19.85,12.78,37.94,1.74C102.73,94.74,112.75,58.87,90.35,48.93Z"/><circle class="cls-2" cx="78.02" cy="92.93" r="6.85"/><circle class="cls-2" cx="62.41" cy="96.57" r="3.64"/><path class="cls-2" d="M70,76a3.64,3.64,0,1,0,3.85,3.42A3.64,3.64,0,0,0,70,76Z"/><circle class="cls-2" cx="80.7" cy="73.26" r="2.68"/><circle class="cls-2" cx="75.34" cy="64.7" r="2.68"/><path class="cls-5" d="M54.52,225.21c-7.26-4.31-2.16,4.31-2.16,4.31s5.1,6.47,5.1,11-6.67,2.95-7.65,2-1.17,5.69-1.17,5.69,5.49-1.17,8.82-2,4.91,27.44,5.88,30.78,5.29,0,5.29,0S61.78,229.52,54.52,225.21Z"/><path class="cls-2" d="M59.43,206.48c-2.22-6.56-18.28-11.57-27.68,1.49s-10.57,39-1.21,49.89,17.34,11.28,23.72,7.22c8.71-5.53-2.1-14.63-1.17-30.08S63.45,218.29,59.43,206.48Z"/><path class="cls-5" d="M88.76,242.46c-1,1-7.65,2.55-7.65-2s5.1-11,5.1-11,5.1-8.62-2.16-4.31S69.94,277,69.94,277s4.31,3.34,5.29,0,2.55-31.57,5.88-30.78,8.82,2,8.82,2S89.75,241.48,88.76,242.46Z"/><path class="cls-2" d="M79.15,206.48c-4,11.82,5.4,13.07,6.33,28.52s-9.87,24.55-1.16,30.08c6.39,4.07,14.36,3.72,23.72-7.22s8.2-36.83-1.2-49.89S81.37,199.91,79.15,206.48Z"/></svg>