<svg id="Layer_1" data-name="Layer 1" xmlns="http://www.w3.org/2000/svg" viewBox="0 0 124 105"><defs><style>.cls-1{fill:#173249;fill-rule:evenodd;opacity:0.9;}</style></defs><title>User-chat-head</title><path class="cls-1" d="M123.33,103.9a21.22,21.22,0,0,0-11.55-12A13.78,13.78,0,0,0,109,90.67c-3.17-.72-6.3-1.57-9.42-2.5a4.09,4.09,0,0,1-2.91-1,46.92,46.92,0,0,1-6.89-2.93,3,3,0,0,1-2-.93c-.39-.1-.72-.36-1.11-.47a4.92,4.92,0,0,1-2.78-1.76c-.43-.28-.89-.54-1.29-.86a1.74,1.74,0,0,1-1-1.26c-.19-.82-.44-1.63-.66-2.44A17.51,17.51,0,0,1,80.44,74c-.1-.47-.21-.88-.73-1s-1,0-1.44.09c-1,.21-1.49-.09-1.64-1.11-.11-.73-.31-1.47-.34-2.19-.08-1.61-.32-3.33,1.23-4.52a64.1,64.1,0,0,0,4.23-11.44c.25-.89.66-1.63,1.84-1.66a1.66,1.66,0,0,0,1.52-1.28A43.92,43.92,0,0,1,87.52,44c.33-1.59,1.12-3.07,1.18-4.72,0-.33.07-.66,0-1a.87.87,0,0,0-.19-.35l-.18-.13c0-.71.09-1.41.06-2.11A2,2,0,0,0,87,33.68c-.89-.23-1.05-.72-1-1.51.2-3.11.38-6.22.57-9.33a.33.33,0,0,0,0-.29.16.16,0,0,0,0-.19c-.09-.94-.17-1.89-.28-2.83A15.81,15.81,0,0,0,84.55,13,22.69,22.69,0,0,0,75.14,4.2,40.77,40.77,0,0,0,64.44.9,22.9,22.9,0,0,0,44.07,6.14a.61.61,0,0,1,0,.16h0A4.48,4.48,0,0,0,42.55,8a13.64,13.64,0,0,1-2.82,3.41A7.61,7.61,0,0,0,37,18.15a1,1,0,0,0-.22.13,1.39,1.39,0,0,0-.24.34c-.48,2.22.12,4.43.11,6.64A28.35,28.35,0,0,1,37.35,31a1.78,1.78,0,0,1-1.23,2.13,3,3,0,0,0-2,2.75,9.63,9.63,0,0,0,.14,3.91c.5,1.83,1,3.65,1.62,5.45a14.85,14.85,0,0,1,1.84,4.92,2.5,2.5,0,0,0,1.69,2.15A2.13,2.13,0,0,1,40.87,54c.29,1.33.79,2.6,1.19,3.89.47,1.05,1.25,2,1.26,3.22a1.11,1.11,0,0,0,.09.37c2.25,3.59,3.46,7.35,2,11.57-.77.82-1.53,0-2.29-.05s-1.41-.08-1.59.86c-.58,1.83-.9,3.74-1.48,5.57a3.41,3.41,0,0,1-1.78,2.21,36.39,36.39,0,0,1-6.47,2.66c-1.5,1.06-3.31,1.39-5,2-3.27,1.2-6.69,1.89-10,2.79-4.11,1.1-8.1,2.47-11.54,5.1-1.75,2.15-4.05,3.89-4.91,6.7,0,1.19.07,2.4,0,3.58-.07.93.19,1.14,1.13,1.14q60.86,0,121.72,0C123.72,105.08,123.57,104.53,123.33,103.9Z"/></svg>